<svg width="0" height="0" class="hidden">
  <symbol fill="none" xmlns="http://www.w3.org/2000/svg" viewBox="0 0 14 14" id="arrow-down">
    <path d="M7.00013 9.79963C6.5918 9.79963 6.18347 9.64213 5.8743 9.33297L2.07097 5.52963C1.9018 5.36047 1.9018 5.08047 2.07097 4.9113C2.24013 4.74213 2.52013 4.74213 2.6893 4.9113L6.49263 8.71463C6.77263 8.99463 7.22763 8.99463 7.50763 8.71463L11.311 4.9113C11.4801 4.74213 11.7601 4.74213 11.9293 4.9113C12.0985 5.08047 12.0985 5.36047 11.9293 5.52963L8.12597 9.33297C7.8168 9.64213 7.40847 9.79963 7.00013 9.79963Z" fill="#90A3BF" stroke="#90A3BF" stroke-width="0.5"></path>
  </symbol>
  <symbol fill="none" xmlns="http://www.w3.org/2000/svg" viewBox="0 0 12 12" id="arrow-down-dark">
    <path d="M6.00025 8.3997C5.65025 8.3997 5.30025 8.2647 5.03525 7.9997L1.77525 4.7397C1.63025 4.5947 1.63025 4.3547 1.77525 4.2097C1.92025 4.0647 2.16025 4.0647 2.30525 4.2097L5.56525 7.4697C5.80525 7.7097 6.19525 7.7097 6.43525 7.4697L9.69525 4.2097C9.84025 4.0647 10.0803 4.0647 10.2253 4.2097C10.3703 4.3547 10.3703 4.5947 10.2253 4.7397L6.96525 7.9997C6.70025 8.2647 6.35025 8.3997 6.00025 8.3997Z" fill="#1A202C" stroke="#1A202C" stroke-width="0.5"></path>
  </symbol>
  <symbol fill="none" xmlns="http://www.w3.org/2000/svg" viewBox="0 0 24 24" id="Car">
    <path d="M12 2C6.48 2 2 6.48 2 12C2 17.52 6.48 22 12 22C17.52 22 22 17.52 22 12C22 6.48 17.53 2 12 2Z" fill="#90A3BF"></path>
    <rect x="4" y="4" width="16" height="16" rx="8" fill="white"></rect>
    <path d="M12 6C8.688 6 6 8.688 6 12C6 15.312 8.688 18 12 18C15.312 18 18 15.312 18 12C18 8.688 15.318 6 12 6Z" fill="#90A3BF"></path>
    <rect x="8" y="8" width="8" height="8" rx="4" fill="white"></rect>
    <rect x="11" y="17" width="2" height="4" fill="#90A3BF"></rect>
    <rect x="17" y="11" width="4" height="2" fill="#90A3BF"></rect>
    <rect x="3" y="11" width="4" height="2" fill="#90A3BF"></rect>
  </symbol>
  <symbol fill="none" xmlns="http://www.w3.org/2000/svg" viewBox="0 0 24 24" id="filter">
    <path d="M22 6.5H16" stroke="#596780" stroke-width="1.5" stroke-miterlimit="10" stroke-linecap="round" stroke-linejoin="round"></path>
    <path d="M6 6.5H2" stroke="#596780" stroke-width="1.5" stroke-miterlimit="10" stroke-linecap="round" stroke-linejoin="round"></path>
    <path d="M10 10C11.933 10 13.5 8.433 13.5 6.5C13.5 4.567 11.933 3 10 3C8.067 3 6.5 4.567 6.5 6.5C6.5 8.433 8.067 10 10 10Z" stroke="#596780" stroke-width="1.5" stroke-miterlimit="10" stroke-linecap="round" stroke-linejoin="round"></path>
    <path d="M22 17.5H18" stroke="#596780" stroke-width="1.5" stroke-miterlimit="10" stroke-linecap="round" stroke-linejoin="round"></path>
    <path d="M8 17.5H2" stroke="#596780" stroke-width="1.5" stroke-miterlimit="10" stroke-linecap="round" stroke-linejoin="round"></path>
    <path d="M14 21C15.933 21 17.5 19.433 17.5 17.5C17.5 15.567 15.933 14 14 14C12.067 14 10.5 15.567 10.5 17.5C10.5 19.433 12.067 21 14 21Z" stroke="#596780" stroke-width="1.5" stroke-miterlimit="10" stroke-linecap="round" stroke-linejoin="round"></path>
  </symbol>
  <symbol fill="none" xmlns="http://www.w3.org/2000/svg" viewBox="0 0 24 24" id="gas-station">
    <path d="M22.34 9.33L20.34 8.33C19.97 8.15 19.51 8.29 19.33 8.66C19.14 9.04 19.29 9.49 19.66 9.67L21.25 10.46V15.25L17.5 15.26V5C17.5 3 16.16 2 14.5 2H6.5C4.84 2 3.5 3 3.5 5V21.25H2C1.59 21.25 1.25 21.59 1.25 22C1.25 22.41 1.59 22.75 2 22.75H19C19.41 22.75 19.75 22.41 19.75 22C19.75 21.59 19.41 21.25 19 21.25H17.5V16.76L22 16.75C22.42 16.75 22.75 16.41 22.75 16V10C22.75 9.72 22.59 9.46 22.34 9.33ZM6 6.89C6 5.5 6.85 5 7.89 5H13.12C14.15 5 15 5.5 15 6.89V8.12C15 9.5 14.15 10 13.11 10H7.89C6.85 10 6 9.5 6 8.11V6.89ZM6.5 12.25H9.5C9.91 12.25 10.25 12.59 10.25 13C10.25 13.41 9.91 13.75 9.5 13.75H6.5C6.09 13.75 5.75 13.41 5.75 13C5.75 12.59 6.09 12.25 6.5 12.25Z" fill="#90A3BF"></path>
  </symbol>
  <symbol fill="none" xmlns="http://www.w3.org/2000/svg" viewBox="0 0 24 24" id="heart">
    <path d="M16.44 3.1001C14.63 3.1001 13.01 3.9801 12 5.3301C10.99 3.9801 9.37 3.1001 7.56 3.1001C4.49 3.1001 2 5.6001 2 8.6901C2 9.8801 2.19 10.9801 2.52 12.0001C4.1 17.0001 8.97 19.9901 11.38 20.8101C11.72 20.9301 12.28 20.9301 12.62 20.8101C15.03 19.9901 19.9 17.0001 21.48 12.0001C21.81 10.9801 22 9.8801 22 8.6901C22 5.6001 19.51 3.1001 16.44 3.1001Z" fill="#ED3F3F"></path>
  </symbol>
  <symbol fill="none" xmlns="http://www.w3.org/2000/svg" viewBox="0 0 24 24" id="heart-dark">
    <path d="M16.44 3.09998C14.63 3.09998 13.01 3.97998 12 5.32998C10.99 3.97998 9.37 3.09998 7.56 3.09998C4.49 3.09998 2 5.59998 2 8.68998C2 9.87998 2.19 10.98 2.52 12C4.1 17 8.97 19.99 11.38 20.81C11.72 20.93 12.28 20.93 12.62 20.81C15.03 19.99 19.9 17 21.48 12C21.81 10.98 22 9.87998 22 8.68998C22 5.59998 19.51 3.09998 16.44 3.09998Z" fill="#596780"></path>
  </symbol>
  <symbol fill="none" xmlns="http://www.w3.org/2000/svg" viewBox="0 0 12 12" id="ic-actions-star-filled">
    <path fill-rule="evenodd" clip-rule="evenodd" d="M5.50008 1.59488C5.53462 1.48536 5.60317 1.3897 5.69579 1.3218C5.7884 1.2539 5.90024 1.21729 6.01508 1.21729C6.12992 1.21729 6.24177 1.2539 6.33438 1.3218C6.42699 1.3897 6.49555 1.48536 6.53008 1.59488L7.46008 4.45488H10.4601C10.579 4.45038 10.6962 4.48495 10.7936 4.5533C10.8911 4.62165 10.9635 4.72002 10.9997 4.83339C11.036 4.94676 11.0342 5.06888 10.9945 5.18111C10.9549 5.29333 10.8795 5.38949 10.7801 5.45488L8.34508 7.21988L9.27508 10.0849C9.31186 10.194 9.31279 10.312 9.27773 10.4217C9.24267 10.5314 9.17345 10.6271 9.0802 10.6946C8.98694 10.7622 8.87452 10.7982 8.75936 10.7973C8.6442 10.7965 8.53233 10.7588 8.44008 10.6899L6.00008 8.90488L3.56508 10.6749C3.47284 10.7438 3.36097 10.7815 3.2458 10.7823C3.13064 10.7832 3.01823 10.7472 2.92497 10.6796C2.83171 10.6121 2.7625 10.5164 2.72744 10.4067C2.69238 10.297 2.6933 10.179 2.73008 10.0699L3.66008 7.20488L1.22508 5.43988C1.12562 5.37449 1.05031 5.27833 1.01064 5.16611C0.970978 5.05388 0.969144 4.93176 1.00542 4.81839C1.0417 4.70502 1.11409 4.60665 1.21154 4.5383C1.30899 4.46995 1.42614 4.43538 1.54508 4.43988H4.54508L5.50008 1.59488Z" fill="#FBAD39"></path>
  </symbol>
  <symbol fill="none" xmlns="http://www.w3.org/2000/svg" viewBox="0 0 12 12" id="ic-actions-star-vacant">
    <g clip-path="url(#clip0_1_46985)">
      <path fill-rule="evenodd" clip-rule="evenodd" d="M5.50008 1.59488C5.53462 1.48536 5.60317 1.3897 5.69579 1.3218C5.7884 1.2539 5.90024 1.21729 6.01508 1.21729C6.12992 1.21729 6.24177 1.2539 6.33438 1.3218C6.42699 1.3897 6.49555 1.48536 6.53008 1.59488L7.46008 4.45488H10.4601C10.579 4.45038 10.6962 4.48495 10.7936 4.5533C10.8911 4.62165 10.9635 4.72002 10.9997 4.83339C11.036 4.94676 11.0342 5.06888 10.9945 5.18111C10.9549 5.29333 10.8795 5.38949 10.7801 5.45488L8.34508 7.21988L9.27508 10.0849C9.31186 10.194 9.31279 10.312 9.27773 10.4217C9.24267 10.5314 9.17345 10.6271 9.0802 10.6946C8.98694 10.7622 8.87452 10.7982 8.75936 10.7973C8.6442 10.7965 8.53233 10.7588 8.44008 10.6899L6.00008 8.90488L3.56508 10.6749C3.47284 10.7438 3.36097 10.7815 3.2458 10.7823C3.13064 10.7832 3.01823 10.7472 2.92497 10.6796C2.83171 10.6121 2.7625 10.5164 2.72744 10.4067C2.69238 10.297 2.6933 10.179 2.73008 10.0699L3.66008 7.20488L1.22508 5.43988C1.12562 5.37449 1.05031 5.27833 1.01064 5.16611C0.970978 5.05388 0.969144 4.93176 1.00542 4.81839C1.0417 4.70502 1.11409 4.60665 1.21154 4.5383C1.30899 4.46995 1.42614 4.43538 1.54508 4.43988H4.54508L5.50008 1.59488Z" stroke="#C3D4E9" stroke-width="1.5" stroke-linecap="round" stroke-linejoin="round"></path>
    </g>
    <defs>
      <clipPath id="clip0_1_46985">
        <rect width="12" height="12" fill="white"></rect>
      </clipPath>
    </defs>
  </symbol>
  <symbol fill="none" xmlns="http://www.w3.org/2000/svg" viewBox="0 0 24 24" id="linear-like">
    <path d="M12.62 20.81C12.28 20.93 11.72 20.93 11.38 20.81C8.48 19.82 2 15.69 2 8.68998C2 5.59998 4.49 3.09998 7.56 3.09998C9.38 3.09998 10.99 3.97998 12 5.33998C13.01 3.97998 14.63 3.09998 16.44 3.09998C19.51 3.09998 22 5.59998 22 8.68998C22 15.69 15.52 19.82 12.62 20.81Z" stroke="#90A3BF" stroke-width="1.5" stroke-linecap="round" stroke-linejoin="round"></path>
  </symbol>
  <symbol fill="none" xmlns="http://www.w3.org/2000/svg" viewBox="0 0 24 24" id="notification">
    <path d="M19.3399 14.49L18.3399 12.83C18.1299 12.46 17.9399 11.76 17.9399 11.35V8.82C17.9399 6.47 16.5599 4.44 14.5699 3.49C14.0499 2.57 13.0899 2 11.9899 2C10.8999 2 9.91994 2.59 9.39994 3.52C7.44994 4.49 6.09994 6.5 6.09994 8.82V11.35C6.09994 11.76 5.90994 12.46 5.69994 12.82L4.68994 14.49C4.28994 15.16 4.19994 15.9 4.44994 16.58C4.68994 17.25 5.25994 17.77 5.99994 18.02C7.93994 18.68 9.97994 19 12.0199 19C14.0599 19 16.0999 18.68 18.0399 18.03C18.7399 17.8 19.2799 17.27 19.5399 16.58C19.7999 15.89 19.7299 15.13 19.3399 14.49Z" fill="#596780"></path>
    <path d="M14.8299 20.01C14.4099 21.17 13.2999 22 11.9999 22C11.2099 22 10.4299 21.68 9.87993 21.11C9.55993 20.81 9.31993 20.41 9.17993 20C9.30993 20.02 9.43993 20.03 9.57993 20.05C9.80993 20.08 10.0499 20.11 10.2899 20.13C10.8599 20.18 11.4399 20.21 12.0199 20.21C12.5899 20.21 13.1599 20.18 13.7199 20.13C13.9299 20.11 14.1399 20.1 14.3399 20.07C14.4999 20.05 14.6599 20.03 14.8299 20.01Z" fill="#596780"></path>
  </symbol>
  <symbol fill="none" xmlns="http://www.w3.org/2000/svg" viewBox="0 0 24 24" id="profile-2user">
    <path d="M9 2C6.38 2 4.25 4.13 4.25 6.75C4.25 9.32 6.26 11.4 8.88 11.49C8.96 11.48 9.04 11.48 9.1 11.49C9.12 11.49 9.13 11.49 9.15 11.49C9.16 11.49 9.16 11.49 9.17 11.49C11.73 11.4 13.74 9.32 13.75 6.75C13.75 4.13 11.62 2 9 2Z" fill="#90A3BF"></path>
    <path d="M14.08 14.1499C11.29 12.2899 6.73999 12.2899 3.92999 14.1499C2.65999 14.9999 1.95999 16.1499 1.95999 17.3799C1.95999 18.6099 2.65999 19.7499 3.91999 20.5899C5.31999 21.5299 7.15999 21.9999 8.99999 21.9999C10.84 21.9999 12.68 21.5299 14.08 20.5899C15.34 19.7399 16.04 18.5999 16.04 17.3599C16.03 16.1299 15.34 14.9899 14.08 14.1499Z" fill="#90A3BF"></path>
    <path d="M19.99 7.3401C20.15 9.2801 18.77 10.9801 16.86 11.2101C16.85 11.2101 16.85 11.2101 16.84 11.2101H16.81C16.75 11.2101 16.69 11.2101 16.64 11.2301C15.67 11.2801 14.78 10.9701 14.11 10.4001C15.14 9.4801 15.73 8.1001 15.61 6.6001C15.54 5.7901 15.26 5.0501 14.84 4.4201C15.22 4.2301 15.66 4.1101 16.11 4.0701C18.07 3.9001 19.82 5.3601 19.99 7.3401Z" fill="#90A3BF"></path>
    <path d="M21.99 16.5899C21.91 17.5599 21.29 18.3999 20.25 18.9699C19.25 19.5199 17.99 19.7799 16.74 19.7499C17.46 19.0999 17.88 18.2899 17.96 17.4299C18.06 16.1899 17.47 14.9999 16.29 14.0499C15.62 13.5199 14.84 13.0999 13.99 12.7899C16.2 12.1499 18.98 12.5799 20.69 13.9599C21.61 14.6999 22.08 15.6299 21.99 16.5899Z" fill="#90A3BF"></path>
  </symbol>
  <symbol fill="none" xmlns="http://www.w3.org/2000/svg" viewBox="0 0 24 24" id="search">
    <path d="M11.5 21C16.7467 21 21 16.7467 21 11.5C21 6.25329 16.7467 2 11.5 2C6.25329 2 2 6.25329 2 11.5C2 16.7467 6.25329 21 11.5 21Z" stroke="#596780" stroke-width="1.5" stroke-linecap="round" stroke-linejoin="round"></path>
    <path d="M22 22L20 20" stroke="#596780" stroke-width="1.5" stroke-linecap="round" stroke-linejoin="round"></path>
  </symbol>
  <symbol fill="none" xmlns="http://www.w3.org/2000/svg" viewBox="0 0 24 24" id="setting-2">
    <path d="M20.1 9.22006C18.29 9.22006 17.55 7.94006 18.45 6.37006C18.97 5.46006 18.66 4.30006 17.75 3.78006L16.02 2.79006C15.23 2.32006 14.21 2.60006 13.74 3.39006L13.63 3.58006C12.73 5.15006 11.25 5.15006 10.34 3.58006L10.23 3.39006C9.78 2.60006 8.76 2.32006 7.97 2.79006L6.24 3.78006C5.33 4.30006 5.02 5.47006 5.54 6.38006C6.45 7.94006 5.71 9.22006 3.9 9.22006C2.86 9.22006 2 10.0701 2 11.1201V12.8801C2 13.9201 2.85 14.7801 3.9 14.7801C5.71 14.7801 6.45 16.0601 5.54 17.6301C5.02 18.5401 5.33 19.7001 6.24 20.2201L7.97 21.2101C8.76 21.6801 9.78 21.4001 10.25 20.6101L10.36 20.4201C11.26 18.8501 12.74 18.8501 13.65 20.4201L13.76 20.6101C14.23 21.4001 15.25 21.6801 16.04 21.2101L17.77 20.2201C18.68 19.7001 18.99 18.5301 18.47 17.6301C17.56 16.0601 18.3 14.7801 20.11 14.7801C21.15 14.7801 22.01 13.9301 22.01 12.8801V11.1201C22 10.0801 21.15 9.22006 20.1 9.22006ZM12 15.2501C10.21 15.2501 8.75 13.7901 8.75 12.0001C8.75 10.2101 10.21 8.75006 12 8.75006C13.79 8.75006 15.25 10.2101 15.25 12.0001C15.25 13.7901 13.79 15.2501 12 15.2501Z" fill="#596780"></path>
  </symbol>
  <symbol fill="none" xmlns="http://www.w3.org/2000/svg" viewBox="0 0 24 24" id="swap-light">
    <path d="M7.16051 3.83577L7.16051 17.4536" stroke="white" stroke-width="1.5" stroke-linecap="round" stroke-linejoin="round"></path>
    <path d="M3.08273 7.93188L7.1605 3.83522L11.2383 7.93188" stroke="white" stroke-width="1.5" stroke-linecap="round" stroke-linejoin="round"></path>
    <path d="M17.0887 20.1671L17.0887 6.54934" stroke="white" stroke-width="1.5" stroke-linecap="round" stroke-linejoin="round"></path>
    <path d="M21.1665 16.071L17.0887 20.1677L13.0109 16.071" stroke="white" stroke-width="1.5" stroke-linecap="round" stroke-linejoin="round"></path>
  </symbol>
  <symbol fill="none" xmlns="http://www.w3.org/2000/svg" viewBox="0 0 12 13" id="triangle-down">
    <path d="M3.32006 6.07009L5.86742 8.61741C5.94065 8.69064 6.05936 8.69064 6.13259 8.61741L8.67988 6.07009C8.798 5.95196 8.71438 5.75 8.54728 5.75H3.45265C3.2856 5.75 3.20195 5.95197 3.32006 6.07009Z" fill="white"></path>
  </symbol>
  <symbol fill="none" xmlns="http://www.w3.org/2000/svg" viewBox="0 0 13 12" id="triangle-down-dark">
    <path d="M3.82006 5.57009L6.36742 8.11741C6.44065 8.19064 6.55936 8.19064 6.63259 8.11741L9.17988 5.57009C9.298 5.45196 9.21438 5.25 9.04728 5.25H3.95265C3.7856 5.25 3.70195 5.45197 3.82006 5.57009Z" fill="#1A202C"></path>
  </symbol>
  <symbol fill="none" xmlns="http://www.w3.org/2000/svg" viewBox="0 0 13 12" id="wechat">
    <path fill-rule="evenodd" clip-rule="evenodd" d="M0.75 5.5C0.75 2.73857 2.98857 0.5 5.75 0.5C8.07919 0.5 10.0363 2.0925 10.592 4.24828C10.0073 3.93051 9.33724 3.75 8.625 3.75C8.01056 3.75 7.4275 3.88434 6.90359 4.12525C6.80439 4.03694 6.67403 3.98334 6.53125 3.98334C6.2206 3.98334 5.96875 4.23706 5.96875 4.55001C5.96875 4.6026 5.97586 4.65352 5.98917 4.70185C5.07927 5.4585 4.5 6.5991 4.5 7.875C4.5 8.8679 4.85081 9.77887 5.43523 10.4907C5.07299 10.4656 4.70828 10.4027 4.34236 10.3046L2.89726 10.9253C2.5613 11.0696 2.17337 11.019 1.88562 10.7934C1.59787 10.5678 1.45619 10.2031 1.51614 9.84246L1.74118 8.48858C1.11911 7.65514 0.75 6.61983 0.75 5.5ZM10.7388 5.5734C10.6694 6.04942 10.2637 6.41886 9.76704 6.42764C9.24818 6.43682 8.81464 6.04915 8.75607 5.5442L7 5.75L6.63439 8.4467C7.05 8.50298 7.40144 8.81895 7.4829 9.25376C7.57845 9.76379 7.26853 10.2559 6.78048 10.3978C6.00414 9.82927 5.5 8.91101 5.5 7.875C5.5 6.14911 6.89911 4.75 8.625 4.75C9.44018 4.75 10.1825 5.06213 10.7388 5.5734ZM4.28125 5.11669C4.5919 5.11669 4.84375 4.86299 4.84375 4.55001C4.84375 4.23706 4.5919 3.98334 4.28125 3.98334C3.9706 3.98334 3.71875 4.23706 3.71875 4.55001C3.71875 4.86299 3.9706 5.11669 4.28125 5.11669Z" fill="white"></path>
    <mask id="path-2-inside-1_1_46270" fill="white">
      <path fill-rule="evenodd" clip-rule="evenodd" d="M11.0006 8.99316L11.25 10.5L10.1904 9.98229"></path>
    </mask>
    <path fill-rule="evenodd" clip-rule="evenodd" d="M11.0006 8.99316L11.25 10.5L10.1904 9.98229" fill="white"></path>
    <path d="M11.25 10.5L11.0305 10.9492L11.9016 11.3748L11.7433 10.4183L11.25 10.5ZM10.5073 9.07481L10.7567 10.5816L11.7433 10.4183L11.4939 8.91152L10.5073 9.07481ZM11.4695 10.0507L10.4099 9.53304L9.97094 10.4315L11.0305 10.9492L11.4695 10.0507Z" fill="white" mask="url(#path-2-inside-1_1_46270)"></path>
    <path d="M11.0006 8.99316L11.25 10.5L10.1904 9.98229" stroke="white" stroke-width="2" stroke-linecap="round" stroke-linejoin="round"></path>
    <path fill-rule="evenodd" clip-rule="evenodd" d="M10.5073 9.59542C10.5383 9.62079 10.5666 9.6503 10.5916 9.68384C10.7564 9.90538 10.7105 10.2186 10.4889 10.3835C9.96853 10.7707 9.32283 11 8.625 11C6.89911 11 5.5 9.60089 5.5 7.875C5.5 6.14911 6.89911 4.75 8.625 4.75C10.3509 4.75 11.75 6.14911 11.75 7.875C11.75 8.35018 11.6436 8.80192 11.4528 9.20647C11.335 9.45623 11.0371 9.56322 10.7873 9.44544C10.7494 9.42755 10.7148 9.4055 10.6837 9.3801L10.5073 9.59542ZM9.42188 7.69998C9.18887 7.69998 9 7.5097 9 7.27498C9 7.04025 9.18887 6.84998 9.42188 6.84998C9.65487 6.84998 9.84375 7.04025 9.84375 7.27498C9.84375 7.5097 9.65487 7.69998 9.42188 7.69998ZM7.3125 7.27498C7.3125 7.5097 7.50137 7.69998 7.73438 7.69998C7.96738 7.69998 8.15625 7.5097 8.15625 7.27498C8.15625 7.04025 7.96738 6.84998 7.73438 6.84998C7.50137 6.84998 7.3125 7.04025 7.3125 7.27498Z" fill="white"></path>
  </symbol>
  <symbol fill="none" xmlns="http://www.w3.org/2000/svg" viewBox="0 0 13 12" id="wechat-dark">
    <path fill-rule="evenodd" clip-rule="evenodd" d="M0.75 5.5C0.75 2.73857 2.98857 0.5 5.75 0.5C8.07919 0.5 10.0363 2.0925 10.592 4.24828C10.0073 3.93051 9.33724 3.75 8.625 3.75C8.01056 3.75 7.4275 3.88434 6.90359 4.12525C6.80439 4.03694 6.67403 3.98334 6.53125 3.98334C6.2206 3.98334 5.96875 4.23706 5.96875 4.55001C5.96875 4.6026 5.97586 4.65352 5.98917 4.70185C5.07927 5.4585 4.5 6.5991 4.5 7.875C4.5 8.8679 4.85081 9.77887 5.43523 10.4907C5.07299 10.4656 4.70828 10.4027 4.34236 10.3046L2.89726 10.9253C2.5613 11.0696 2.17337 11.019 1.88562 10.7934C1.59787 10.5678 1.45619 10.2031 1.51614 9.84246L1.74118 8.48858C1.11911 7.65514 0.75 6.61983 0.75 5.5ZM10.7388 5.5734C10.6694 6.04942 10.2637 6.41886 9.76704 6.42764C9.24818 6.43682 8.81464 6.04915 8.75607 5.5442L7 5.75L6.63439 8.4467C7.05 8.50298 7.40144 8.81895 7.4829 9.25376C7.57845 9.76379 7.26853 10.2559 6.78048 10.3978C6.00414 9.82927 5.5 8.91101 5.5 7.875C5.5 6.14911 6.89911 4.75 8.625 4.75C9.44018 4.75 10.1825 5.06213 10.7388 5.5734ZM4.28125 5.11669C4.5919 5.11669 4.84375 4.86299 4.84375 4.55001C4.84375 4.23706 4.5919 3.98334 4.28125 3.98334C3.9706 3.98334 3.71875 4.23706 3.71875 4.55001C3.71875 4.86299 3.9706 5.11669 4.28125 5.11669Z" fill="#1A202C"></path>
    <mask id="path-2-inside-1_1_46564" fill="white">
      <path fill-rule="evenodd" clip-rule="evenodd" d="M11.0006 8.99316L11.25 10.5L10.1904 9.98229"></path>
    </mask>
    <path fill-rule="evenodd" clip-rule="evenodd" d="M11.0006 8.99316L11.25 10.5L10.1904 9.98229" fill="#1A202C"></path>
    <path d="M11.25 10.5L11.0305 10.9492L11.9016 11.3748L11.7433 10.4183L11.25 10.5ZM10.5073 9.07481L10.7567 10.5816L11.7433 10.4183L11.4939 8.91152L10.5073 9.07481ZM11.4695 10.0507L10.4099 9.53304L9.97094 10.4315L11.0305 10.9492L11.4695 10.0507Z" fill="#1A202C" mask="url(#path-2-inside-1_1_46564)"></path>
    <path d="M11.0006 8.99316L11.25 10.5L10.1904 9.98229" stroke="#1A202C" stroke-width="2" stroke-linecap="round" stroke-linejoin="round"></path>
    <path fill-rule="evenodd" clip-rule="evenodd" d="M10.5073 9.59542C10.5383 9.62079 10.5666 9.6503 10.5916 9.68384C10.7564 9.90538 10.7105 10.2186 10.4889 10.3835C9.96853 10.7707 9.32283 11 8.625 11C6.89911 11 5.5 9.60089 5.5 7.875C5.5 6.14911 6.89911 4.75 8.625 4.75C10.3509 4.75 11.75 6.14911 11.75 7.875C11.75 8.35018 11.6436 8.80192 11.4528 9.20647C11.335 9.45623 11.0371 9.56322 10.7873 9.44544C10.7494 9.42755 10.7148 9.4055 10.6837 9.3801L10.5073 9.59542ZM9.42188 7.69998C9.18887 7.69998 9 7.5097 9 7.27498C9 7.04025 9.18887 6.84998 9.42188 6.84998C9.65487 6.84998 9.84375 7.04025 9.84375 7.27498C9.84375 7.5097 9.65487 7.69998 9.42188 7.69998ZM7.3125 7.27498C7.3125 7.5097 7.50137 7.69998 7.73438 7.69998C7.96738 7.69998 8.15625 7.5097 8.15625 7.27498C8.15625 7.04025 7.96738 6.84998 7.73438 6.84998C7.50137 6.84998 7.3125 7.04025 7.3125 7.27498Z" fill="#1A202C"></path>
  </symbol>
</svg>